<?xml version="1.0" encoding="utf-8"?>
<!-- Generator: Adobe Illustrator 22.0.1, SVG Export Plug-In . SVG Version: 6.00 Build 0)  -->
<svg version="1.1" id="图层_1" xmlns="http://www.w3.org/2000/svg" xmlns:xlink="http://www.w3.org/1999/xlink" x="0px" y="0px"
	 viewBox="0 0 100 100" style="enable-background:new 0 0 100 100;" xml:space="preserve">
<style type="text/css">
	.st0{fill:url(#SVGID_1_);}
	.st1{fill:url(#SVGID_2_);}
	.st2{fill:#A1A19E;}
	.st3{fill:#E7E5E6;}
	.st4{fill:url(#SVGID_3_);}
	.st5{fill:url(#SVGID_4_);}
	.st6{fill:url(#SVGID_5_);}
	.st7{fill:url(#SVGID_6_);}
	.st8{fill:#EEEEEE;}
	.st9{fill:url(#SVGID_7_);}
	.st10{fill:url(#SVGID_8_);}
	.st11{fill:#FFFFFF;}
	.st12{fill:#C2C2C2;}
	.st13{fill:url(#SVGID_9_);}
	.st14{fill:url(#SVGID_10_);}
	.st15{fill:url(#SVGID_11_);}
	.st16{fill:url(#SVGID_12_);}
	.st17{fill:#BFBFBF;}
	.st18{fill:url(#SVGID_13_);}
	.st19{fill:url(#SVGID_14_);}
	.st20{fill:url(#SVGID_15_);}
	.st21{fill:url(#SVGID_16_);}
	.st22{fill:url(#SVGID_17_);}
	.st23{fill:#A5A5A6;}
	.st24{fill:url(#SVGID_18_);}
	.st25{fill:#E7E6E5;}
	.st26{fill:url(#SVGID_19_);}
	.st27{fill:url(#SVGID_20_);}
	.st28{fill:url(#SVGID_21_);}
</style>
<g>
	
		<linearGradient id="SVGID_1_" gradientUnits="userSpaceOnUse" x1="-349.0738" y1="449.3466" x2="-348.51" y2="449.3466" gradientTransform="matrix(-381.0519 17.0161 -13.6446 -374.0157 -126741.3672 174047.0938)">
		<stop  offset="0" style="stop-color:#979994"/>
		<stop  offset="1.685390e-02" style="stop-color:#979994"/>
		<stop  offset="0.2191" style="stop-color:#DCDEDF"/>
		<stop  offset="0.2339" style="stop-color:#CFD0D1"/>
		<stop  offset="0.2617" style="stop-color:#ABACAD"/>
		<stop  offset="0.2996" style="stop-color:#727273"/>
		<stop  offset="0.3456" style="stop-color:#232223"/>
		<stop  offset="0.3539" style="stop-color:#141314"/>
		<stop  offset="0.4551" style="stop-color:#DCDEDF"/>
		<stop  offset="0.5115" style="stop-color:#E9EAEB"/>
		<stop  offset="0.5618" style="stop-color:#F8F8FA"/>
		<stop  offset="0.6007" style="stop-color:#EBEAEC"/>
		<stop  offset="0.6738" style="stop-color:#C7C7C8"/>
		<stop  offset="0.7732" style="stop-color:#8D8D8E"/>
		<stop  offset="0.8937" style="stop-color:#3F3E3F"/>
		<stop  offset="0.9551" style="stop-color:#141314"/>
		<stop  offset="1" style="stop-color:#141314"/>
	</linearGradient>
	<path class="st0" d="M51,95.4c-20.7,0-39.5-14-44.7-35C0.2,35.8,15.2,10.8,39.9,4.7c3.7-0.9,7.5-1.4,11.2-1.4
		c20.7,0,39.4,14,44.7,35c1.5,6,1.7,12,0.9,17.7c0.5-0.4,0.9-0.9,1.5-1.3l0,0l0,0c-2.7,20.1-17.9,35.9-37.2,39.7
		C57.6,95.1,54.3,95.4,51,95.4L51,95.4z M52.5,1.4c-3.9,0-7.9,0.5-11.9,1.5C14.9,9.3-1,34.9,5.3,60.2C10.6,81.5,30,95.7,51.5,95.7
		c3.9,0,7.9-0.5,11.9-1.5c25.8-6.4,41.6-32.1,35.3-57.3C93.3,15.7,73.9,1.4,52.5,1.4L52.5,1.4z"/>
	
		<radialGradient id="SVGID_2_" cx="-347.2685" cy="448.4395" r="0.5642" gradientTransform="matrix(-119.0658 29.5947 -29.5947 -119.0658 -28018.0938 63707.7969)" gradientUnits="userSpaceOnUse">
		<stop  offset="0" style="stop-color:#FFFFFF"/>
		<stop  offset="0.2191" style="stop-color:#FFFFFF"/>
		<stop  offset="0.2892" style="stop-color:#F2F2F2"/>
		<stop  offset="0.4203" style="stop-color:#D0CFCE"/>
		<stop  offset="0.5969" style="stop-color:#989795"/>
		<stop  offset="0.6798" style="stop-color:#7C7B78"/>
		<stop  offset="1" style="stop-color:#7C7B78"/>
	</radialGradient>
	<path class="st1" d="M28.9,13.7c0.4-0.5,8.4-9.4,23.5-9.4c0.7,0,1.5,0,2.3,0.1C68.8,5.2,75.9,11.1,79,16.1
		c4.7,3.8,7.4,8.6,7.2,13.7c-0.1,2.7-1,5.2-2.6,7.4c4.9,5.7,5.4,17.9,5.2,21.1c-5.5,6.8-20.3,7.9-20.3,7.9l-1.7-4.2l-0.7,0.6
		c0,0-4,3.7-18.6,3.7c-0.1,0-0.2,0-0.4,0c-19.1-0.7-29-10.8-29.9-12.5c0.5-7.1,4.2-12.8,7.2-16.3c-2.8-3.2-4.3-6.9-4.1-10.7
		C20.6,21.7,23.8,17.1,28.9,13.7L28.9,13.7z M51.1,3.3c-3.7,0-7.4,0.4-11.2,1.4C15.2,10.8,0.2,35.8,6.3,60.5c5.2,21,24,35,44.7,35
		c3.3,0,6.6-0.3,9.9-1.1c-2.9,0.6-5.9,0.9-8.9,0.9c-0.7,0-1.4,0-2.1,0c-24.7-1.1-44-21.4-44.4-45.9c1.2,1.2,2.3,2.5,3.3,3.8
		c0-0.1,0-0.2,0-0.2c0,0.1,0,0.2,0,0.2C17.8,64.4,26,80.7,51,81.8c1.4,0.1,2.8,0.1,4.1,0.1c25.3,0,30.5-11.9,37.4-21.2
		c1.2-4.3,1.6-8.8,1.4-13.3c0.3,4.2,0,8.5-0.9,12.6c1.1-1.5,2.3-2.8,3.6-4.1c0.8-5.7,0.6-11.7-0.9-17.7C90.5,17.3,71.7,3.3,51.1,3.3
		L51.1,3.3z"/>
	<path class="st2" d="M8.7,52.8C9.5,63.6,14.3,74,23,81.7c17.7,15.6,44.7,13.9,60.3-3.8c7.7-8.7,11.1-19.7,10.6-30.4
		c0.8,11.1-2.6,22.5-10.5,31.5c-15.6,17.7-42.6,19.4-60.3,3.8C14.1,74.8,9.3,63.9,8.7,52.8L8.7,52.8z"/>
	<path class="st3" d="M98.1,54.7c-0.5,0.4-1,0.8-1.5,1.3c-2.6,18-15.8,33.4-34.5,38.1c-0.4,0.1-0.9,0.2-1.3,0.3
		C80.1,90.6,95.3,74.8,98.1,54.7L98.1,54.7z"/>
	<radialGradient id="SVGID_3_" cx="52.4834" cy="90.7316" r="83.8809" gradientUnits="userSpaceOnUse">
		<stop  offset="0.1236" style="stop-color:#EAEBEB"/>
		<stop  offset="0.6067" style="stop-color:#AFB0AE"/>
		<stop  offset="0.9663" style="stop-color:#F4F4F5"/>
	</radialGradient>
	<path class="st4" d="M8.7,53.1c0.9,10.6,5.7,21,14.3,28.6c8.1,7.2,18.2,10.7,28.2,10.7c11.8,0,23.6-4.9,32.1-14.5
		c4.5-5.1,7.6-11,9.2-17.1C85.6,70,80.4,81.9,55.1,81.9c-1.3,0-2.7,0-4.1-0.1C26,80.7,17.8,64.4,8.7,53.1L8.7,53.1z"/>
	<radialGradient id="SVGID_4_" cx="53.0302" cy="93.3437" r="91.3742" gradientUnits="userSpaceOnUse">
		<stop  offset="0.1236" style="stop-color:#EAEBEB"/>
		<stop  offset="0.6067" style="stop-color:#AFB0AE"/>
		<stop  offset="0.9663" style="stop-color:#F4F4F5"/>
	</radialGradient>
	<path class="st5" d="M5.4,49.2c0.4,24.5,19.7,45.9,46.6,46c3.1,0,6-0.3,8.9-0.9c0.4-0.1,0.9-0.2,1.3-0.3C80.8,89.4,94,73.9,96.6,56
		c-1.3,1.3-2.5,2.6-3.6,4.1c-1.5,6.8-4.7,13.3-9.6,18.9c-8.4,9.6-20.2,14.5-32.1,14.5c-10,0-20.1-3.5-28.2-10.7
		C14.2,74.9,9.3,64.1,8.7,53.1C7.6,51.7,6.5,50.4,5.4,49.2L5.4,49.2z"/>
	
		<radialGradient id="SVGID_5_" cx="-347.0014" cy="446.9471" r="0.5637" gradientTransform="matrix(-87.3516 -3.9893 4.0246 -87.9768 -32058.4629 37985.5)" gradientUnits="userSpaceOnUse">
		<stop  offset="0" style="stop-color:#CBCAC9"/>
		<stop  offset="0.1236" style="stop-color:#CBCAC9"/>
		<stop  offset="0.6067" style="stop-color:#C1C1BF"/>
		<stop  offset="0.9663" style="stop-color:#D2D1CF"/>
		<stop  offset="1" style="stop-color:#AABBCC"/>
	</radialGradient>
	<path class="st6" d="M8.7,53.1c0.6,11,5.5,21.8,14.4,29.7c8.1,7.2,18.2,10.7,28.2,10.7c11.8,0,23.6-4.9,32.1-14.5
		c4.9-5.6,8.1-12.1,9.6-18.9c-0.2,0.2-0.3,0.4-0.5,0.6c-1.6,6.2-4.7,12-9.2,17.1c-8.4,9.6-20.2,14.5-32.1,14.5
		c-10,0-20.1-3.5-28.2-10.7C14.4,74.1,9.6,63.7,8.7,53.1C8.7,53.1,8.7,53.1,8.7,53.1L8.7,53.1z"/>
	<radialGradient id="SVGID_6_" cx="56.6998" cy="42.874" r="70.5018" gradientUnits="userSpaceOnUse">
		<stop  offset="0" style="stop-color:#FFFFFF"/>
		<stop  offset="0.2191" style="stop-color:#FFFFFF"/>
		<stop  offset="0.3037" style="stop-color:#F2F2F1"/>
		<stop  offset="0.4637" style="stop-color:#CFCECC"/>
		<stop  offset="0.6798" style="stop-color:#989691"/>
		<stop  offset="1" style="stop-color:#989691"/>
	</radialGradient>
	<path class="st7" d="M52.5,11.8c-9.8,0-14.3,6.7-14.3,6.7l-9.3-4.7c0,0,0,0,0,0c-5.1,3.4-8.4,8-8.6,13.1c-0.2,3.8,1.3,7.5,4.1,10.7
		c2-2.3,3.6-3.6,3.6-3.6s6-0.5,10.1-0.5c0.5,0,1,0,1.5,0c0.1,0,0.3,0,0.6,0c1.5,0,4.5-0.1,8.2-0.3c3.8-0.1,8.3-0.3,12.8-0.3
		c8.2,0,16.4,0.5,19.8,2.2c1,0.5,1.8,1.2,2.6,2.1c1.6-2.3,2.5-4.8,2.6-7.4c0.2-5.1-2.5-9.9-7.2-13.7c0.7,1.1,1.1,2.1,1.4,3
		c0.1,0-0.1,0-0.4,0c-2.1,0-11.3-0.6-11.3-0.6s-4.7-6.4-15.1-6.9C53.2,11.8,52.8,11.8,52.5,11.8L52.5,11.8z"/>
	<path class="st8" d="M51.8,7.6c-9,0-17.1,2.3-22.8,6.1c0,0,0,0,0,0l9.3,4.7c0,0,4.6-6.7,14.3-6.7c0.3,0,0.7,0,1,0
		c10.5,0.5,15.1,6.9,15.1,6.9s9.2,0.6,11.3,0.6c0.3,0,0.5,0,0.4,0c-0.3-0.9-0.8-2-1.4-3c-5.8-4.7-14.7-8-24.8-8.4
		C53.4,7.7,52.6,7.6,51.8,7.6L51.8,7.6z"/>
	
		<radialGradient id="SVGID_7_" cx="-347.2431" cy="448.3898" r="0.5752" gradientTransform="matrix(-119.0658 29.5947 -29.5947 -119.0658 -28018.0938 63707.7969)" gradientUnits="userSpaceOnUse">
		<stop  offset="0" style="stop-color:#FFFFFF"/>
		<stop  offset="0.2191" style="stop-color:#FFFFFF"/>
		<stop  offset="0.3037" style="stop-color:#F2F2F1"/>
		<stop  offset="0.4637" style="stop-color:#CFCECC"/>
		<stop  offset="0.6798" style="stop-color:#989691"/>
		<stop  offset="1" style="stop-color:#989691"/>
	</radialGradient>
	<path class="st9" d="M83.5,37.2C78.7,44.2,67.9,48.9,55.2,49c-0.2,0-0.4,0-0.5,0c-0.2,0-0.4,0-0.6,0c-0.6,0-1.2,0-1.8-0.1
		c-12.1-0.5-22.4-5.1-27.9-11.4c-3,3.5-6.7,9.2-7.2,16.3c1,1.7,10.8,11.8,29.9,12.5c0.1,0,0.2,0,0.4,0c14.5,0,18.6-3.7,18.6-3.7
		l0.7-0.6l1.7,4.2c0,0,14.9-1.2,20.3-7.9C88.9,55.2,88.4,42.9,83.5,37.2L83.5,37.2z"/>
	<radialGradient id="SVGID_8_" cx="56.6967" cy="42.8727" r="70.5036" gradientUnits="userSpaceOnUse">
		<stop  offset="0" style="stop-color:#FFFFFF"/>
		<stop  offset="0.2191" style="stop-color:#FFFFFF"/>
		<stop  offset="0.3376" style="stop-color:#F2F2F1"/>
		<stop  offset="0.5608" style="stop-color:#CFCECC"/>
		<stop  offset="0.6798" style="stop-color:#BAB9B6"/>
		<stop  offset="1" style="stop-color:#989691"/>
	</radialGradient>
	<path class="st10" d="M61.2,32.9c-4.5,0-9,0.1-12.8,0.3c-3.8,0.1-6.8,0.3-8.2,0.3c-0.2,0-0.4,0-0.6,0c-0.5,0-1,0-1.5,0
		C34,33.4,28,34,28,34s-1.6,1.3-3.6,3.6c5.5,6.3,15.8,10.9,27.9,11.4c0.6,0,1.2,0,1.8,0.1h1.1c12.7-0.1,23.5-4.8,28.3-11.8
		c-0.8-0.9-1.6-1.6-2.6-2.1C77.6,33.4,69.5,32.9,61.2,32.9L61.2,32.9z"/>
	<path class="st11" d="M9.3,67.3c-0.4-0.3-0.9-0.9-1.4-1.8c-0.9-1.6-2-4.2-3.2-8.7C4,53.7,3.4,49.6,2.9,44.3c0-0.5,0-1,0-1.5
		c0-0.6,0-1.2,0.1-1.8c0.1-0.8,0.2-1.6,0.3-2.4c0.2-1.4,0.5-2.7,0.8-4c-0.6,1.8-1.1,3.8-1.4,6.1c-0.9,6.4,0.1,14.5,4.5,24
		C7.8,66,8,66.3,8.9,67.1c0.5,0.6,0.8,0.7,0.9,0.7c0,0,0,0,0,0C9.6,67.6,9.5,67.5,9.3,67.3z M4.1,34.6c1.8-5.4,4.4-9.1,5.3-10.7
		C7.2,26.2,5.3,30,4.1,34.6z"/>
	<path class="st12" d="M64.5,22.7c0,0,0,0.1,0,0.1c-0.6-6.8,1.9-8.3,6.3-8.8c10.9,0.3,19.2,5.8,23.7,9.6c-1.5-1.3-3.4-2.8-5.6-4.1
		C82.7,15.6,62,7.7,64.5,22.7z"/>
	<radialGradient id="SVGID_9_" cx="54.9183" cy="109.9658" r="29.8018" gradientUnits="userSpaceOnUse">
		<stop  offset="0.2198" style="stop-color:#F5F6F6"/>
		<stop  offset="0.2822" style="stop-color:#E8E9E8"/>
		<stop  offset="0.3993" style="stop-color:#C6C6C4"/>
		<stop  offset="0.5575" style="stop-color:#8E8E8B"/>
		<stop  offset="0.5824" style="stop-color:#858481"/>
		<stop  offset="0.6264" style="stop-color:#858481"/>
		<stop  offset="0.7637" style="stop-color:#504F50"/>
	</radialGradient>
	<path class="st13" d="M57.8,97C57.8,97,57.8,97,57.8,97c0.1,0,0.1,0,0.1,0C57.9,97,57.8,97,57.8,97z"/>
	<radialGradient id="SVGID_10_" cx="50.0799" cy="20.3315" r="93.6845" gradientUnits="userSpaceOnUse">
		<stop  offset="0.2198" style="stop-color:#F5F6F6"/>
		<stop  offset="0.2614" style="stop-color:#ECEDED"/>
		<stop  offset="0.3305" style="stop-color:#D4D4D3"/>
		<stop  offset="0.4178" style="stop-color:#ADACAB"/>
		<stop  offset="0.4945" style="stop-color:#858481"/>
		<stop  offset="0.5659" style="stop-color:#858481"/>
		<stop  offset="0.6758" style="stop-color:#9F9D99"/>
		<stop  offset="0.8077" style="stop-color:#504F50"/>
	</radialGradient>
	<path class="st14" d="M73.7,13.3c-12.7-1.6-11,7-10.4,9.1c-2.4-14.9,18.2-7,24.5-3.1c2.2,1.3,4.1,2.8,5.6,4.1
		c2.1,1.8,3.4,3.1,3.7,3.5c0-0.1,0-0.1-0.1-0.2C95.7,24.6,85,14.8,73.7,13.3z"/>
	
		<radialGradient id="SVGID_11_" cx="-68.9258" cy="109.4507" r="25.7529" gradientTransform="matrix(0.9135 0 0 1 111.5511 0)" gradientUnits="userSpaceOnUse">
		<stop  offset="0.2198" style="stop-color:#F5F6F6"/>
		<stop  offset="0.2822" style="stop-color:#E8E9E8"/>
		<stop  offset="0.3993" style="stop-color:#C6C6C4"/>
		<stop  offset="0.5575" style="stop-color:#8E8E8B"/>
		<stop  offset="0.5824" style="stop-color:#858481"/>
		<stop  offset="0.6264" style="stop-color:#858481"/>
		<stop  offset="0.7637" style="stop-color:#504F50"/>
	</radialGradient>
	<path class="st15" d="M50.6,97.8L50.6,97.8L50.6,97.8L50.6,97.8L50.6,97.8L50.6,97.8c0.1,0.1,0.2,0.3,0.3,0.3
		c0.5,0,1.3-0.1,1.5-0.1c0.1-0.3,0.6-1.3,0.8-2.3c-1.4-0.1-2.6-0.2-3.7-0.4C49.9,96.6,50.3,97.4,50.6,97.8z"/>
	<radialGradient id="SVGID_12_" cx="82.6824" cy="29.071" r="40.6779" gradientUnits="userSpaceOnUse">
		<stop  offset="0.2198" style="stop-color:#F5F6F6"/>
		<stop  offset="0.5824" style="stop-color:#FFFFFF"/>
		<stop  offset="0.6264" style="stop-color:#858481"/>
		<stop  offset="0.7637" style="stop-color:#504F50"/>
	</radialGradient>
	<path class="st16" d="M79.1,38.5c10.4,5.5,14.8,7.5,17.5,10.4c-2.9-4.4-3-3.6-17-11.1c-2.8-1.5-11.7-4.4-14.1-11.3
		c-0.3-0.8-0.5-1.6-0.7-2.3c0.2,1,0.6,2.1,1,3.3C68.3,34.3,76.2,37,79.1,38.5z"/>
	<path class="st17" d="M74.3,14.1c-12.7-1.6-9.1,8.2-8.4,10.3c-2.4-15,16.3-8.2,22.6-4.3c2.2,1.3,4.1,2.8,5.6,4.1
		c2.1,1.8,3.4,3.1,3.7,3.5c0-0.1,0-0.1-0.1-0.2C96.3,25.4,85.6,15.5,74.3,14.1z"/>
	
		<radialGradient id="SVGID_13_" cx="-86.3339" cy="94.962" r="17.0887" gradientTransform="matrix(0.9135 0 0 1 111.5511 0)" gradientUnits="userSpaceOnUse">
		<stop  offset="0.2198" style="stop-color:#F5F6F6"/>
		<stop  offset="0.2614" style="stop-color:#ECEDED"/>
		<stop  offset="0.3305" style="stop-color:#D4D4D3"/>
		<stop  offset="0.4178" style="stop-color:#ADACAB"/>
		<stop  offset="0.4945" style="stop-color:#858481"/>
		<stop  offset="0.5659" style="stop-color:#858481"/>
		<stop  offset="0.6758" style="stop-color:#9F9D99"/>
		<stop  offset="0.8077" style="stop-color:#504F50"/>
	</radialGradient>
	<path class="st18" d="M53.3,94.8c-1.4,0.1-2.7,0-3.9,0c0,0,0,0,0,0.1c-0.4,0-0.8,0-1.2,0c-0.5,0.3-0.6,0.6-0.1,0.7
		c0.6,1.9,0.6,2.1,1.1,2.3c-0.7,0.2-2.6-0.1-3.1-0.2c-3.4-0.5-4.8-0.8-5.5-1.2c0.7,0.6,1.6,2.1,7.1,2.6c0.9,0.1,3.4-0.6,3.8-0.6
		c0.3,0,0.6-0.2,0.9-0.2c0,0,0,0-0.1,0c-0.2,0-1,0.1-1.5,0.1c-0.1-0.1-0.2-0.2-0.3-0.3c-0.3-0.5-0.7-1.3-1.1-2.4
		c1.1,0.2,2.3,0.3,3.7,0.4C53.3,95.4,53.4,95.1,53.3,94.8z"/>
	<radialGradient id="SVGID_14_" cx="52.3799" cy="66.4955" r="66.3423" gradientUnits="userSpaceOnUse">
		<stop  offset="0" style="stop-color:#FFFFFF"/>
		<stop  offset="0.2191" style="stop-color:#FFFFFF"/>
		<stop  offset="0.2892" style="stop-color:#F2F2F2"/>
		<stop  offset="0.4203" style="stop-color:#D0CFCE"/>
		<stop  offset="0.5969" style="stop-color:#989795"/>
		<stop  offset="0.6798" style="stop-color:#7C7B78"/>
		<stop  offset="1" style="stop-color:#7C7B78"/>
	</radialGradient>
	<path class="st19" d="M97.7,27.7C93.6,23,88.5,20,82.9,17.4c-5.5-2.7-18.5-6.3-17.2,5.8c3.7-14,24.9,2.6,30.2,7.2
		C96.5,29.5,97.7,27.6,97.7,27.7z"/>
	
		<radialGradient id="SVGID_15_" cx="57.6893" cy="95.7561" r="68.8212" gradientTransform="matrix(1 0 0 1.302 0 -64.3924)" gradientUnits="userSpaceOnUse">
		<stop  offset="0" style="stop-color:#FFFFFF"/>
		<stop  offset="0.2191" style="stop-color:#FFFFFF"/>
		<stop  offset="0.2892" style="stop-color:#F2F2F2"/>
		<stop  offset="0.4203" style="stop-color:#D0CFCE"/>
		<stop  offset="0.5969" style="stop-color:#989795"/>
		<stop  offset="0.6798" style="stop-color:#7C7B78"/>
		<stop  offset="1" style="stop-color:#7C7B78"/>
	</radialGradient>
	<path class="st20" d="M24,81.7c0.2-9.1,0.4-18.2,0.6-27.3c0.1-4.7,0.2-9.5,0.3-14.2c0.1-3.1-1.1-6.1-1.9-9
		c-0.9,18-1.8,36.1-2.7,54.1C21.5,84.1,22.8,82.9,24,81.7L24,81.7z"/>
	<path class="st11" d="M55.1,41.1c0,0,19.5,11.3,24.6,16.5c4.3,4.4,8.9,8.8,7.3,15C84.6,82,81.9,91,61.3,93.5
		C80.1,93,90.4,80.6,88.1,67.6C87.4,57,55.1,41.1,55.1,41.1z"/>
	
		<radialGradient id="SVGID_16_" cx="51.3336" cy="66.0584" r="68.6762" gradientTransform="matrix(1.0143 0 0 0.9955 -1.7222 0.5511)" gradientUnits="userSpaceOnUse">
		<stop  offset="0" style="stop-color:#FFFFFF"/>
		<stop  offset="0.2191" style="stop-color:#FFFFFF"/>
		<stop  offset="0.2892" style="stop-color:#F2F2F2"/>
		<stop  offset="0.4203" style="stop-color:#D0CFCE"/>
		<stop  offset="0.5969" style="stop-color:#989795"/>
		<stop  offset="0.6798" style="stop-color:#7C7B78"/>
		<stop  offset="1" style="stop-color:#7C7B78"/>
	</radialGradient>
	<path class="st21" d="M83,72.8C82.6,85.5,69.9,91.2,58.8,93c0.7,0.6,0.4,0.6,1.5,0.5c0.7,0,1.4-0.1,2.1-0.2c1.5-0.2,3-0.1,4.5-0.4
		c3.2-0.7,6.3-1.8,9-3.5c6.7-4,10.1-8.5,11.4-19c-0.4-5.4-3.8-9.1-7.6-12.8c-4.2-4.1-7.5-5.6-11.5-8.1c-2.4-1.5-10.7-7.3-12.5-7.6
		c7.3,4.4,11.4,9,13.4,10.7C75.2,57.3,83.3,64.5,83,72.8C82.7,80.9,83.5,58.5,83,72.8z"/>
	<radialGradient id="SVGID_17_" cx="-9.094947e-13" cy="17.8769" r="0" gradientUnits="userSpaceOnUse">
		<stop  offset="0.2198" style="stop-color:#ED7900"/>
		<stop  offset="0.2649" style="stop-color:#E97002"/>
		<stop  offset="0.3398" style="stop-color:#E05608"/>
		<stop  offset="0.4345" style="stop-color:#D02E12"/>
		<stop  offset="0.4945" style="stop-color:#C51019"/>
		<stop  offset="0.5769" style="stop-color:#82050C"/>
		<stop  offset="0.6923" style="stop-color:#B51119"/>
		<stop  offset="0.8022" style="stop-color:#ED7E7E"/>
	</radialGradient>
	<path class="st22" d="M0,17.9"/>
	<path class="st23" d="M44.2,38l2-0.5c0,0-5.7,15.3,4.8,57.6c-3.7-1.5-4,0.7-4,0.7l-6.8-27.8L38.9,41l2.4-2.9l3.3,0.3"/>
	<radialGradient id="SVGID_18_" cx="44.3445" cy="66.7397" r="21.0703" gradientUnits="userSpaceOnUse">
		<stop  offset="0" style="stop-color:#FFFFFF"/>
		<stop  offset="0.2191" style="stop-color:#FFFFFF"/>
		<stop  offset="0.2892" style="stop-color:#F2F2F2"/>
		<stop  offset="0.4203" style="stop-color:#D0CFCE"/>
		<stop  offset="0.5969" style="stop-color:#989795"/>
		<stop  offset="0.6798" style="stop-color:#7C7B78"/>
		<stop  offset="1" style="stop-color:#7C7B78"/>
	</radialGradient>
	<path class="st24" d="M43.6,38l2-0.5c0,0-5.7,15.3,4.8,57.6c-3.7-1.5-4,0.7-4,0.7l-6.8-27.8L38.3,41l2.4-2.9l3.3,0.3"/>
	<polygon class="st25" points="13.4,32.8 12.9,42.8 15.8,41.7 11.6,63.4 11.4,64.4 13.8,65 16.3,58.2 17.7,48.6 18.2,43.2 
		17.7,36.5 16,31.1 14.1,31.8 	"/>
	<radialGradient id="SVGID_19_" cx="13.1982" cy="39.7337" r="19.4575" gradientUnits="userSpaceOnUse">
		<stop  offset="0" style="stop-color:#FFFFFF"/>
		<stop  offset="0.2191" style="stop-color:#FFFFFF"/>
		<stop  offset="0.2892" style="stop-color:#F2F2F2"/>
		<stop  offset="0.4203" style="stop-color:#D0CFCE"/>
		<stop  offset="0.5969" style="stop-color:#989795"/>
		<stop  offset="0.6798" style="stop-color:#7C7B78"/>
		<stop  offset="1" style="stop-color:#7C7B78"/>
	</radialGradient>
	<path class="st26" d="M20.4,13.4l0.6,1c0,0-10.2,14.4-12.7,28.1c-1.1,9.8,1,14,2.5,21c1.6,7-3.5-2.2-3.5-2.2l-2-7.5l1.2-16.4
		l3.5-12.3L20.4,13.4z"/>
	<radialGradient id="SVGID_20_" cx="34.9157" cy="26.4217" r="39.0717" gradientUnits="userSpaceOnUse">
		<stop  offset="0" style="stop-color:#FFFFFF"/>
		<stop  offset="0.2191" style="stop-color:#FFFFFF"/>
		<stop  offset="0.2892" style="stop-color:#F2F2F2"/>
		<stop  offset="0.4203" style="stop-color:#D0CFCE"/>
		<stop  offset="0.5969" style="stop-color:#989795"/>
		<stop  offset="0.6798" style="stop-color:#7C7B78"/>
		<stop  offset="1" style="stop-color:#7C7B78"/>
	</radialGradient>
	<path class="st27" d="M23.4,38.6h-1.8V41l0.6,0.9c0,0-6-0.6,31.7-2.9c37.8-2.2-0.7-4-0.7-4l-17.8-2.5c0,0-7.9,3-8.2,3.1
		C26.9,35.8,23.4,38.6,23.4,38.6z"/>
	
		<radialGradient id="SVGID_21_" cx="33.8306" cy="6.9475" r="109.9515" gradientTransform="matrix(0.9454 0 0 1 7.9536 0)" gradientUnits="userSpaceOnUse">
		<stop  offset="0.2198" style="stop-color:#ED7900"/>
		<stop  offset="0.2649" style="stop-color:#E97002"/>
		<stop  offset="0.3398" style="stop-color:#E05608"/>
		<stop  offset="0.4345" style="stop-color:#D02E12"/>
		<stop  offset="0.4945" style="stop-color:#C51019"/>
		<stop  offset="0.5769" style="stop-color:#82050C"/>
		<stop  offset="0.6923" style="stop-color:#B51119"/>
		<stop  offset="0.8022" style="stop-color:#ED7E7E"/>
	</radialGradient>
	<path class="st28" d="M94.1,46.4c-2.4-1.4-18.3-9.3-20.6-11c-2.3-1.7-8.3-5.8-8-15.2c0.3-9.4,12.6-5.7,16.7-3.8
		c4.7,2.1,7.5,3.5,11.4,6.9c0,0,3.2,3.2,4,4.1c0,0-2.4-13.1-11-18.9c-9.4-6.3-19.4-9.1-27.4-6.4c-8,2.8-11.3,14-12.2,24.1
		c0,0.1,0,0.2,0,0.4c-16.7-2.1-32.9,5.2-32.9,5.2l-0.6,10.1l3.1-1.3l-4.4,22.9C9.3,63,5.9,55.6,7.4,41c3.1-13.8,13-27.6,13-27.6
		S3.9,23.8,1.6,40.2C0.1,53.8,1.9,69,20.3,85.1c0.3,0,1.7-29.2,2.5-45.5c2-0.2,11.6-1.2,10.7-0.8c-2.3,11.1-1.2,50.9,7.3,57.6
		c0.6,0.3,7.5,1.4,9.3,1.2c-10.4-40.3-5.9-59.3-5.9-59.3l7.8-0.5c3.7,3.6,8.6,6.2,11.7,7.9c5.9,3.2,17.2,11.8,18,12.6
		c0.8,0.8,12.3,9.3,2.9,23.6c-1,1.7-5.4,10.5-22.5,11.5c-3.7,0-1.5,0-5.3,0c-3.8,0,3.8,1.7,8.3,1C69.8,93.9,89,93,99.7,63.3
		C101.3,53.9,96.5,47.8,94.1,46.4z"/>
</g>
</svg>
